<?xml version="1.0" encoding="UTF-8"?>
<svg id="Layer_2" data-name="Layer 2" xmlns="http://www.w3.org/2000/svg" viewBox="0 0 267.27 68.55">
  <defs>
    <style>
      .cls-1 {
        fill: #717fbe;
      }

      .cls-2 {
        fill: #231f20;
      }

      .cls-3 {
        font-family: Roboto-Regular, Roboto;
        font-size: 36px;
        letter-spacing: -.02em;
      }

      .cls-4 {
        fill: #e8579f;
      }

      .cls-5 {
        fill: #4267a1;
      }

      .cls-6 {
        stroke: #717fbe;
      }

      .cls-6, .cls-7 {
        fill: none;
        stroke-miterlimit: 10;
      }

      .cls-8 {
        fill: #9b9b9b;
        opacity: .15;
        stroke: #231f20;
        stroke-linejoin: round;
      }

      .cls-7 {
        stroke: #e8579f;
      }
    </style>
  </defs>
  <g id="Layer_1-2" data-name="Layer 1">
    <path class="cls-8" d="M24.52-5.41h26.32c8.92,0,16.17,7.24,16.17,16.17v42.03c0,8.92-7.24,16.17-16.17,16.17h-26.32c-8.92,0-16.17-7.24-16.17-16.17V10.75C8.36,1.83,15.6-5.41,24.52-5.41Z" transform="translate(69.45 -5.91) rotate(90)"/>
    <g>
      <path id="C0_0_c1c8331694-3" data-name="C0 0 c1c8331694-3" class="cls-1" d="M6.76,46.99c0,1.81.67,3.52,2,4.76,1.24,1.24,2.95,2,4.76,2s3.52-.67,4.76-2c1.24-1.24,2-2.95,2-4.76s-.67-3.52-2-4.76c-1.24-1.24-2.95-2-4.76-2s-3.52.67-4.76,2c-1.24,1.24-2,2.95-2,4.76Z"/>
      <path id="C0_0_c1c8331694" data-name="C0 0 c1c8331694" class="cls-4" d="M55.1,16.55c0,1.81.67,3.52,2,4.76,1.24,1.24,2.95,2,4.76,2s3.52-.67,4.76-2c1.24-1.24,2-2.95,2-4.76s-.67-3.52-2-4.76c-1.24-1.24-2.95-2-4.76-2s-3.52.67-4.76,2c-1.24,1.24-2,2.95-2,4.76Z"/>
      <g>
        <path id="C0_0_c1c8331694-3-2" data-name="C0 0 c1c8331694-3" class="cls-4" d="M33.33,34.39c.84,1.15,2.05,2.05,3.47,2.49,1.74.53,3.58.41,5.17-.49,1.56-.81,2.8-2.2,3.34-3.91s.41-3.53-.5-5.09"/>
        <path id="C0_0_c1c8331694-3-3" data-name="C0 0 c1c8331694-3" class="cls-4" d="M33.23,34.23c.09.13.18.25.27.37"/>
      </g>
      <g>
        <path class="cls-6" d="M13.51,40.24c.08-1.5,4.31-17.05,17.42-24.19,11.21-6.1,21.64-4.53,25.08-4.26"/>
        <polygon class="cls-1" points="52.47 15.62 51.83 14.85 55.63 11.71 52.22 8.15 52.94 7.46 57.09 11.79 52.47 15.62"/>
      </g>
      <g>
        <path class="cls-7" d="M61.85,23.3c-.08,1.43-4.21,16.25-16.99,23.04-10.9,5.8-21.05,4.32-24.44,4.06"/>
        <polygon class="cls-4" points="23.96 46.56 24.6 47.33 20.8 50.48 24.22 54.04 23.5 54.73 19.34 50.4 23.96 46.56"/>
      </g>
      <g>
        <line class="cls-7" x1="45.58" y1="26.8" x2="62.34" y2="16.24"/>
        <polygon class="cls-4" points="49.56 28.16 49.71 27.37 45.84 26.64 46.85 22.83 46.08 22.62 44.84 27.27 49.56 28.16"/>
      </g>
      <path id="C0_0_c1c8331694-3-4" data-name="C0 0 c1c8331694-3" class="cls-1" d="M44.84,27.44c-.86-1.52-2.3-2.72-4.04-3.21s-3.57-.31-5.12.64c-1.52.86-2.72,2.3-3.21,4.04s-.31,3.57.64,5.12c.08.14.17.28.26.42"/>
      <g>
        <line class="cls-6" x1="13.51" y1="47" x2="32.66" y2="34.94"/>
        <polygon class="cls-1" points="32.13 39.38 31.31 39.16 32.39 35.11 28.27 34.33 28.43 33.5 33.44 34.45 32.13 39.38"/>
      </g>
    </g>
    <text class="cls-3" transform="translate(83.25 30.8)"><tspan class="cls-5" x="0" y="0">Link</tspan><tspan class="cls-4" x="63.91" y="0">Node</tspan><tspan class="cls-2"><tspan x="0" y="28">Community</tspan></tspan></text>
  </g>
</svg>