<?xml version="1.0" encoding="UTF-8"?>
<svg id="Layer_2" data-name="Layer 2" xmlns="http://www.w3.org/2000/svg" viewBox="0 0 258.21 73.74">
  <defs>
    <style>
      .cls-1 {
        fill: #717fbe;
      }

      .cls-2 {
        fill: #231f20;
      }

      .cls-3 {
        fill: #e8579f;
      }

      .cls-4 {
        font-family: InterFaceArbc-Regular, 'InterFace Arbc';
        font-size: 36px;
        letter-spacing: -.02em;
        stroke: #fff;
        stroke-width: .25px;
      }

      .cls-4, .cls-5, .cls-6 {
        stroke-miterlimit: 10;
      }

      .cls-7 {
        fill: #4267a1;
      }

      .cls-5 {
        stroke: #717fbe;
      }

      .cls-5, .cls-6 {
        fill: none;
      }

      .cls-8 {
        fill: #9b9b9b;
        opacity: .15;
        stroke: #231f20;
        stroke-linejoin: round;
      }

      .cls-6 {
        stroke: #e8579f;
      }
    </style>
  </defs>
  <g id="Layer_1-2" data-name="Layer 1">
    <path class="cls-8" d="M24.52-4.92h26.32c8.92,0,16.17,7.24,16.17,16.17v42.03c0,8.92-7.24,16.17-16.17,16.17h-26.32c-8.92,0-16.17-7.24-16.17-16.17V11.25C8.36,2.33,15.6-4.92,24.52-4.92Z" transform="translate(69.95 -5.42) rotate(90)"/>
    <g>
      <path id="C0_0_c1c8331694-3" data-name="C0 0 c1c8331694-3" class="cls-1" d="M6.76,47.49c0,1.81.67,3.52,2,4.76,1.24,1.24,2.95,2,4.76,2s3.52-.67,4.76-2c1.24-1.24,2-2.95,2-4.76s-.67-3.52-2-4.76c-1.24-1.24-2.95-2-4.76-2s-3.52.67-4.76,2c-1.24,1.24-2,2.95-2,4.76Z"/>
      <path id="C0_0_c1c8331694" data-name="C0 0 c1c8331694" class="cls-3" d="M55.1,17.04c0,1.81.67,3.52,2,4.76,1.24,1.24,2.95,2,4.76,2s3.52-.67,4.76-2c1.24-1.24,2-2.95,2-4.76s-.67-3.52-2-4.76c-1.24-1.24-2.95-2-4.76-2s-3.52.67-4.76,2c-1.24,1.24-2,2.95-2,4.76Z"/>
      <g>
        <path id="C0_0_c1c8331694-3-2" data-name="C0 0 c1c8331694-3" class="cls-3" d="M33.33,34.88c.84,1.15,2.05,2.05,3.47,2.49,1.74.53,3.58.41,5.17-.49,1.56-.81,2.8-2.2,3.34-3.91s.41-3.53-.5-5.09"/>
        <path id="C0_0_c1c8331694-3-3" data-name="C0 0 c1c8331694-3" class="cls-3" d="M33.23,34.73c.09.13.18.25.27.37"/>
      </g>
      <g>
        <path class="cls-5" d="M13.51,40.73c.08-1.5,4.31-17.05,17.42-24.19,11.21-6.1,21.64-4.53,25.08-4.26"/>
        <polygon class="cls-1" points="52.47 16.12 51.83 15.35 55.63 12.21 52.22 8.65 52.94 7.95 57.09 12.29 52.47 16.12"/>
      </g>
      <g>
        <path class="cls-6" d="M61.85,23.8c-.08,1.43-4.21,16.25-16.99,23.04-10.9,5.8-21.05,4.32-24.44,4.06"/>
        <polygon class="cls-3" points="23.96 47.06 24.6 47.83 20.8 50.98 24.22 54.53 23.5 55.23 19.34 50.89 23.96 47.06"/>
      </g>
      <g>
        <line class="cls-6" x1="45.58" y1="27.3" x2="62.34" y2="16.74"/>
        <polygon class="cls-3" points="49.56 28.65 49.71 27.87 45.84 27.14 46.85 23.32 46.08 23.12 44.84 27.76 49.56 28.65"/>
      </g>
      <path id="C0_0_c1c8331694-3-4" data-name="C0 0 c1c8331694-3" class="cls-1" d="M44.84,27.93c-.86-1.52-2.3-2.72-4.04-3.21s-3.57-.31-5.12.64c-1.52.86-2.72,2.3-3.21,4.04s-.31,3.57.64,5.12c.08.14.17.28.26.42"/>
      <g>
        <line class="cls-5" x1="13.51" y1="47.5" x2="32.66" y2="35.43"/>
        <polygon class="cls-1" points="32.13 39.88 31.31 39.66 32.39 35.61 28.27 34.83 28.43 34 33.44 34.94 32.13 39.88"/>
      </g>
    </g>
    <text class="cls-4" transform="translate(83.25 30.13)"><tspan class="cls-7" x="0" y="0">Link</tspan><tspan class="cls-3" x="59.76" y="0">Node</tspan><tspan class="cls-2"><tspan x="0" y="28">Community</tspan></tspan></text>
  </g>
</svg>